<svg fill="none" xmlns="http://www.w3.org/2000/svg" viewBox="0 0 144 101">
  <g clip-path="url(#clip0)">
    <path d="M47.884 98.58a2.09 2.09 0 01-1.898 1.22 2.086 2.086 0 01-1.898-1.22c-.422-.815-.633-2.034-.633-3.656 0-1.63.211-2.85.633-3.662a2.093 2.093 0 013.025-.885c.336.215.604.523.771.886.418.81.627 2.031.629 3.66 0 1.624-.21 2.843-.629 3.656z" fill="#E2001A"/>
    <path d="M144 97.27a3.105 3.105 0 01-1.347 2.585 5.506 5.506 0 01-3.417 1.018 11.385 11.385 0 01-4.429-.778v-2.938h1.401l.009.186c.041.86.168 1.408.385 1.652a3.176 3.176 0 002.467.914c.496.012.976-.172 1.338-.511a1.629 1.629 0 00.547-1.254c0-.77-.646-1.409-1.939-1.919l-.94-.375c-2.178-.865-3.268-2.031-3.268-3.499a2.92 2.92 0 011.257-2.476 5.672 5.672 0 013.403-.918c1.201.01 2.393.192 3.543.538v2.73h-1.414l-.009-.195-.019-.503c0-1.068-.623-1.606-1.871-1.606a1.96 1.96 0 00-1.387.53 1.71 1.71 0 00-.57 1.298 1.27 1.27 0 00.421 1.01 6.166 6.166 0 001.726.868l.931.362c2.124.82 3.185 1.913 3.182 3.282zM133.411 99.651v.964h-4.732v-2.15l-1.098-.05a4.877 4.877 0 001.098-1.022v-5.87a5.162 5.162 0 00-1.184-.828l1.184-.326v-3.137c0-.923-.068-1.48-.199-1.674-.131-.195-.556-.308-1.261-.349l-.194-.023v-.964h4.723v13.384c0 .923.072 1.484.208 1.674.135.19.555.308 1.256.358l.199.013z" fill="#fff"/>
    <path d="M128.679 90.369l-1.184.326a2.52 2.52 0 00-1.112-.277 2.107 2.107 0 00-1.943 1.11c-.434.741-.651 1.853-.651 3.335a6.25 6.25 0 00.574 3.023 1.868 1.868 0 001.722 1.005 2.59 2.59 0 001.333-.376c.054-.031.108-.063.163-.1l1.098.05a4.545 4.545 0 01-1.595 1.806 4.198 4.198 0 01-2.251.602 3.755 3.755 0 01-3.15-1.534c-.773-1.027-1.16-2.41-1.162-4.146 0-1.892.44-3.405 1.32-4.54a4.235 4.235 0 013.53-1.696 4.48 4.48 0 011.78.353 4.897 4.897 0 011.528 1.059zM118.804 98.592v1.575a12.041 12.041 0 01-3.964.706c-1.939 0-3.474-.546-4.605-1.638-1.131-1.092-1.696-2.577-1.695-4.454a5.866 5.866 0 011.528-4.209 5.238 5.238 0 013.986-1.615c3.163 0 4.747 1.944 4.75 5.834v.226h-7.114c0 1.439.336 2.52 1.008 3.24.672.721 1.677 1.082 3.015 1.082a7.973 7.973 0 003.091-.747zm-3.019-4.54v-.361c0-1.376-.139-2.35-.416-2.92a1.464 1.464 0 00-1.433-.85 1.742 1.742 0 00-1.627 1.031 6.854 6.854 0 00-.547 3.1h4.023zM106.872 98.592v1.575a12.036 12.036 0 01-3.963.706c-1.939 0-3.474-.546-4.606-1.638-1.13-1.092-1.697-2.577-1.699-4.454a5.854 5.854 0 011.532-4.209 5.248 5.248 0 013.986-1.615c3.164 0 4.747 1.944 4.75 5.834v.226h-7.113c0 1.439.334 2.52 1.003 3.24.673.72 1.677 1.082 3.019 1.082a7.97 7.97 0 003.091-.747zm-3.019-4.54v-.361c0-1.376-.138-2.35-.415-2.92a1.466 1.466 0 00-1.433-.85 1.738 1.738 0 00-1.627 1.031 6.842 6.842 0 00-.547 3.1h4.022zM95.302 96.38a4.087 4.087 0 01-1.572 3.362c-1.049.837-2.456 1.256-4.222 1.258a18.99 18.99 0 01-4.316-.575v-3.204h1.537l.009.249c.045.91.226 1.489.529 1.738a3.418 3.418 0 002.242.774 2.692 2.692 0 001.984-.76 2.667 2.667 0 00.759-1.983 2.514 2.514 0 00-.443-1.557 5.775 5.775 0 00-1.722-1.285l-1.026-.562c-2.563-1.42-3.845-2.964-3.846-4.63a3.94 3.94 0 011.388-3.15 5.494 5.494 0 013.692-1.19c1.398.032 2.786.259 4.122.675v3.095h-1.532l-.01-.185c-.054-.973-.198-1.575-.424-1.81a2.65 2.65 0 00-1.935-.757 2.232 2.232 0 00-1.672.711 2.428 2.428 0 00-.687 1.747 2.03 2.03 0 00.452 1.335 6.51 6.51 0 001.718 1.272l1.035.602c1.514.875 2.55 1.65 3.109 2.326.561.711.855 1.597.831 2.503zM76.754 97.27a3.103 3.103 0 01-1.346 2.585 5.519 5.519 0 01-3.421 1.018 11.38 11.38 0 01-4.425-.778v-2.938h1.396l.014.186c.04.86.167 1.408.38 1.652a3.202 3.202 0 002.472.914c.495.012.976-.172 1.338-.511a1.644 1.644 0 00.546-1.254c0-.77-.646-1.409-1.939-1.919l-.944-.375c-2.174-.865-3.262-2.031-3.263-3.499a2.916 2.916 0 011.256-2.476 5.664 5.664 0 013.404-.918c1.199.01 2.39.192 3.538.538v2.73h-1.41l-.009-.195-.022-.503c0-1.068-.624-1.606-1.872-1.606a1.95 1.95 0 00-1.383.53 1.706 1.706 0 00-.569 1.298 1.268 1.268 0 00.42 1.01 6.192 6.192 0 001.722.868l.936.362c2.12.82 3.18 1.913 3.181 3.282zM66.08 99.651v.964h-4.728v-2.15l-.94-.104c.358-.299.674-.644.94-1.027v-5.11c0-.928-.068-1.484-.208-1.674-.14-.19-.56-.308-1.265-.358l-.186-.013v-.964h4.728v8.39c0 .924.072 1.485.212 1.675.14.19.556.308 1.252.358l.194.013z" fill="#fff"/>
    <path d="M60.412 98.361l.94.105a5.018 5.018 0 01-1.668 1.805 4.19 4.19 0 01-2.232.602 3.058 3.058 0 01-2.391-.955 3.76 3.76 0 01-.872-2.638v-5.056c0-.928-.068-1.484-.208-1.674-.14-.19-.556-.308-1.257-.358l-.194-.013v-.964h4.727v7.716a3.08 3.08 0 00.312 1.643 1.248 1.248 0 001.107.453c.5-.004.988-.152 1.406-.426.115-.073.225-.153.33-.24zM50.325 90.55c1.052 1.068 1.581 2.52 1.581 4.372 0 1.85-.529 3.313-1.581 4.376-1.053 1.064-2.5 1.593-4.335 1.593h-.013l.013-1.09a2.024 2.024 0 001.894-1.222c.416-.815.628-2.032.628-3.657s-.212-2.847-.628-3.657a2.03 2.03 0 00-1.894-1.218l.014-1.095c1.83.005 3.27.537 4.32 1.598z" fill="#fff"/>
    <path d="M46.004 88.952l-.014 1.095a2.038 2.038 0 00-1.902 1.218c-.42.81-.632 2.029-.633 3.657-.002 1.627.21 2.847.633 3.657A2.04 2.04 0 0045.99 99.8l-.013 1.09c-1.84-.004-3.284-.535-4.334-1.593-1.058-1.063-1.585-2.522-1.582-4.376 0-1.851.524-3.304 1.582-4.372 1.057-1.068 2.503-1.598 4.347-1.598h.014zM39.22 99.651v.964h-6.386v-.964l.194-.013c.701-.05 1.121-.168 1.257-.358.135-.19.208-.751.208-1.674v-5.382c0-.928-.068-1.484-.208-1.674-.14-.19-.556-.308-1.257-.358l-.194-.013v-.964h4.727v8.39c0 .924.068 1.485.213 1.675.145.19.556.308 1.247.358l.2.013zM34.493 84.222h3.069v3.074h-3.07v-3.074zM31.97 89.038v3.634h-1.405l-.013-.185a7.323 7.323 0 00-.15-1.304c-.045-.1-.216-.149-.515-.149-.88 0-1.6.48-2.146 1.44v5.132c0 .941.076 1.498.23 1.679.154.18.655.298 1.505.353l.195.013v.964h-6.653v-.964l.194-.013c.696-.05 1.116-.168 1.256-.358.14-.19.208-.751.208-1.674v-5.382c0-.928-.072-1.484-.207-1.674-.136-.19-.56-.308-1.257-.358l-.194-.013v-.965h4.723v2.15c.934-1.606 2.143-2.409 3.629-2.407.203.005.404.032.6.081zM21.68 98.592v1.575a12.039 12.039 0 01-3.964.706c-1.938 0-3.474-.546-4.605-1.638-1.131-1.092-1.696-2.577-1.695-4.454a5.869 5.869 0 011.528-4.209 5.248 5.248 0 013.986-1.615c3.168 0 4.752 1.944 4.75 5.834v.226h-7.114c0 1.439.336 2.52 1.008 3.24.67.72 1.677 1.082 3.015 1.082a7.972 7.972 0 003.091-.747zm-3.019-4.54v-.361c0-1.376-.136-2.35-.416-2.92a1.468 1.468 0 00-1.433-.85 1.74 1.74 0 00-1.627 1.031 6.843 6.843 0 00-.546 3.1h4.022zM10.11 96.379a4.087 4.087 0 01-1.573 3.363c-1.044.837-2.45 1.256-4.22 1.258A18.99 18.99 0 010 100.425v-3.204h1.537l.009.249c.05.91.226 1.489.528 1.738a3.427 3.427 0 002.242.774 2.612 2.612 0 002.748-2.743 2.515 2.515 0 00-.447-1.557 5.776 5.776 0 00-1.722-1.285l-1.026-.562c-2.563-1.42-3.845-2.964-3.846-4.63a3.942 3.942 0 011.392-3.15 5.474 5.474 0 013.688-1.19c1.4.032 2.788.259 4.126.675v3.095H7.697l-.014-.185c-.054-.973-.194-1.575-.425-1.81a2.65 2.65 0 00-1.934-.757 2.232 2.232 0 00-1.672.711 2.425 2.425 0 00-.683 1.747c-.015.484.144.958.448 1.335.5.515 1.08.945 1.717 1.272l1.035.602c1.158.6 2.21 1.386 3.114 2.326.56.712.852 1.597.827 2.503zM99.845 10.242C106.615 17.067 110 26.416 110 38.29c0 11.873-3.385 21.222-10.155 28.047-6.77 6.83-16.039 10.242-27.804 10.238-11.814 0-21.108-3.413-27.881-10.238C37.387 59.511 34 50.162 34 38.29c0-11.876 3.387-21.225 10.16-28.047C50.93 3.414 60.224 0 72.04 0c11.765 0 21.033 3.414 27.805 10.242z" fill="#fff"/>
    <path d="M84.19 61.733c-2.688 5.227-6.74 7.84-12.152 7.84-5.42 0-9.484-2.613-12.193-7.84-2.71-5.226-4.064-13.04-4.063-23.444 0-10.448 1.354-18.274 4.063-23.48 2.709-5.204 6.774-7.807 12.196-7.806 5.412 0 9.463 2.602 12.152 7.804 2.69 5.202 4.032 13.029 4.027 23.48 0 10.406-1.343 18.222-4.03 23.446z" fill="#E2001A"/>
    <path d="M78.96 17.38l-3.48 3.484 3.48 3.485-3.48 3.485L72 24.35l-3.48 3.485-3.475-3.485 3.475-3.485-3.475-3.485 3.475-3.485L72 17.38l3.48-3.485 3.48 3.485zM72 41.774l-3.48 3.48-3.475-3.48 3.475-3.485-3.475-3.485 3.475-3.485L72 34.804l3.48-3.485 3.48 3.485-3.48 3.485 3.48 3.48-3.48 3.486-3.48-3.48zM78.96 52.224l-3.48 3.485 3.48 3.485-3.48 3.485L72 59.194l-3.48 3.485-3.475-3.485 3.475-3.485-3.475-3.485 3.475-3.485L72 52.224l3.48-3.485 3.48 3.485zM45.439 92.174l-.551-.547.551-.548.547.548.547-.548.547.548-.547.547.547.548-.547.548-.547-.548-.547.548-.551-.548.551-.547zM46.533 94.913l.547.547-.547.553-.547-.553-.547.553-.551-.553.551-.547-.551-.548.551-.548.547.548.547-.548.547.548-.547.548zM46.533 97.655l.547.548-.547.548-.547-.548-.547.548-.551-.548.551-.548-.551-.547.551-.548.547.548.547-.548.547.548-.547.547z" fill="#000"/>
  </g>
  <defs>
    <clipPath id="clip0">
      <path fill="#fff" d="M0 0h144v101H0z"/>
    </clipPath>
  </defs>
</svg>
