<svg width="450" height="316" viewBox="0 0 450 316" fill="none" xmlns="http://www.w3.org/2000/svg">
<path d="M312.014 32.0066C333.171 53.3349 343.75 82.5505 343.75 119.653C343.75 156.756 333.171 185.972 312.014 207.3C290.857 228.643 261.895 239.307 225.127 239.293C188.209 239.293 159.166 228.629 138 207.3C116.834 185.972 106.25 156.756 106.25 119.653C106.25 82.5411 116.834 53.3255 138 32.0066C159.157 10.6689 188.199 0 225.127 0C261.89 0 290.853 10.6689 312.014 32.0066Z" fill="white"/>
<path d="M263.096 192.917C254.693 209.25 242.034 217.416 225.12 217.416C208.183 217.416 195.482 209.25 187.015 192.917C178.549 176.584 174.316 152.163 174.318 119.654C174.318 87.004 178.55 62.5462 187.015 46.2803C195.48 30.0145 208.184 21.8829 225.127 21.8857C242.04 21.8857 254.699 30.0144 263.104 46.2719C271.508 62.5293 275.703 86.9871 275.689 119.645C275.689 152.167 271.491 176.59 263.096 192.917Z" fill="#E2001A"/>
<path d="M246.75 54.3109L235.875 65.2013L246.75 76.0917L235.875 86.9822L225 76.0917L214.125 86.9822L203.264 76.0917L214.125 65.2013L203.264 54.3109L214.125 43.4204L225 54.3109L235.875 43.4204L246.75 54.3109Z" fill="black"/>
<path d="M225 130.544L214.125 141.42L203.264 130.544L214.125 119.653L203.264 108.763L214.125 97.8726L225 108.763L235.875 97.8726L246.75 108.763L235.875 119.653L246.75 130.53L235.875 141.42L225 130.544Z" fill="black"/>
<path d="M246.75 163.201L235.875 174.091L246.75 184.982L235.875 195.872L225 184.982L214.125 195.872L203.264 184.982L214.125 174.091L203.264 163.201L214.125 152.311L225 163.201L235.875 152.311L246.75 163.201Z" fill="black"/>
<path d="M141.997 288.045L140.274 286.334L141.997 284.623L143.706 286.334L145.415 284.623L147.124 286.334L145.415 288.045L147.124 289.757L145.415 291.468L143.706 289.757L141.997 291.468L140.274 289.757L141.997 288.045Z" fill="black"/>
<path d="M145.415 296.602L147.124 298.313L145.415 300.039L143.706 298.313L141.997 300.039L140.274 298.313L141.997 296.602L140.274 294.891L141.997 293.179L143.706 294.891L145.415 293.179L147.124 294.891L145.415 296.602Z" fill="black"/>
<path d="M145.415 305.173L147.124 306.885L145.415 308.596L143.706 306.885L141.997 308.596L140.274 306.885L141.997 305.173L140.274 303.462L141.997 301.75L143.706 303.462L145.415 301.75L147.124 303.462L145.415 305.173Z" fill="black"/>
</svg>
