<?xml version="1.0" encoding="UTF-8"?> <svg xmlns="http://www.w3.org/2000/svg" id="Layer_1" data-name="Layer 1" viewBox="0 0 125 125"> <defs> <style>.cls-1{fill:red;}</style> </defs> <path class="cls-1" d="M77.3,22.2a1.4,1.4,0,0,0-1.4-.1L44.8,37H18.5A1.5,1.5,0,0,0,17,38.5v28h0a.4.4,0,0,0,.1.3v.2h0l20.9,35a1.5,1.5,0,0,0,1.3.7H53.5a1.5,1.5,0,0,0,1.5-1.5,1.9,1.9,0,0,0-.2-.7L35.2,68h9.7l31,14.9a1.6,1.6,0,0,0,2-.8c.1-.1.1-.4.1-.6v-58A1.6,1.6,0,0,0,77.3,22.2ZM20,40H44V65H20Zm30.9,60H40.3L21.1,68H31.7ZM75,79.1,47,65.7V39.3L75,25.8Z"></path> <path class="cls-1" d="M91.5,43.5l.9-.3,11-8a1.4,1.4,0,0,0,.3-2.1,1.6,1.6,0,0,0-2.1-.3h0l-11,8a1.6,1.6,0,0,0-.3,2.1,1.4,1.4,0,0,0,1.2.6Z"></path> <path class="cls-1" d="M106.5,51h-15A1.5,1.5,0,0,0,90,52.5,1.5,1.5,0,0,0,91.5,54h15a1.5,1.5,0,0,0,1.5-1.5A1.5,1.5,0,0,0,106.5,51Z"></path> <path class="cls-1" d="M103.4,69.8l-11-8a1.5,1.5,0,0,0-2.1.4,1.3,1.3,0,0,0,.3,2l11,8a1.5,1.5,0,0,0,1.8-2.4Z"></path> </svg> 