<?xml version="1.0" encoding="UTF-8"?> <svg xmlns="http://www.w3.org/2000/svg" id="Layer_1" data-name="Layer 1" viewBox="0 0 125 125"> <defs> <style>.cls-1{fill:red;}</style> </defs> <path class="cls-1" d="M102.2,61.1a8,8,0,0,0-3.5-6,9.3,9.3,0,0,0-3.3-1.2c3-2.8,5.2-7.4,1.9-14.6S83.2,22.8,73.1,20.4s-13.2.5-13.8,1C43.7,34.2,35.1,65,34.8,66.3h0a7.4,7.4,0,0,0-4.3,3L23.9,79.5a7.4,7.4,0,0,0-.9,5.7A12.8,12.8,0,0,0,28.7,93l15.5,10.1a13.3,13.3,0,0,0,7.3,2.3,7.9,7.9,0,0,0,6.9-3.3L65.1,92a7.6,7.6,0,0,0,1.1-3.2c3.2-.6,5.4-4.4,6.3-6.2l10.2-1.3c11.4-1.4,17.1-11.9,17.6-13A11.2,11.2,0,0,0,102.2,61.1ZM72.4,23.3c8.9,2.1,19.7,11.9,22.2,17.2s1.7,9.2-2.4,12.1l-2.8,2.1h-.2c-2.7,2-5.1,3.9-7.1,5.7a21.4,21.4,0,0,1-25-31.8A32.6,32.6,0,0,1,62.7,23C64.3,22.6,67.3,22.2,72.4,23.3Zm-9.9,67h0l-6.6,10.2c-1.7,2.5-6.3,2.6-10,.1L30.3,90.4a10.1,10.1,0,0,1-4.4-5.8,4.8,4.8,0,0,1,.5-3.4L33.1,71A4.8,4.8,0,0,1,37,69.1h.4a10.4,10.4,0,0,1,5.7,1.8L58.7,81.1a10.1,10.1,0,0,1,4.4,5.8v.4c0,.1,0,.2.1.2A4.2,4.2,0,0,1,62.5,90.3ZM97.8,66.7c0,.1-.1.1-.1.2S92.5,77.1,82.3,78.4l-11,1.3a1.6,1.6,0,0,0-1.2.9c-.7,1.7-2.5,4.7-4.3,5.2a12.4,12.4,0,0,0-5.5-7.2L44.7,68.4A13.2,13.2,0,0,0,38,66.1c1.1-3.9,5.7-18.2,13-30a24.3,24.3,0,0,0,.1,9.3A24.4,24.4,0,0,0,74.9,64.8l2.8-.2A32.3,32.3,0,0,0,71.6,73a1.6,1.6,0,0,0,.8,2H73a1.5,1.5,0,0,0,1.4-.9c1.9-4.5,7.5-10.2,16.6-17a6.8,6.8,0,0,1,6.1.5,4.8,4.8,0,0,1,2.1,3.7A7.9,7.9,0,0,1,97.8,66.7Z"></path> </svg> 