<?xml version="1.0" encoding="UTF-8"?> <svg xmlns="http://www.w3.org/2000/svg" id="Layer_1" data-name="Layer 1" viewBox="0 0 125 125"> <defs> <style>.cls-1{fill:red;}</style> </defs> <path class="cls-1" d="M93.8,32.1H31.2A10.3,10.3,0,0,0,20.9,42.4V82.6A10.3,10.3,0,0,0,31.2,92.9H93.8a10.4,10.4,0,0,0,10.3-10.3V42.4A10.4,10.4,0,0,0,93.8,32.1Zm7.3,50.5a7.3,7.3,0,0,1-7.3,7.3H31.2a7.3,7.3,0,0,1-7.3-7.3V42.4a7.3,7.3,0,0,1,7.3-7.3H93.8a7.3,7.3,0,0,1,7.3,7.3Z"></path> <path class="cls-1" d="M57.1,64.9H35.2a1.5,1.5,0,0,0-1.5,1.5,1.5,1.5,0,0,0,1.5,1.5H57.1a1.5,1.5,0,0,0,1.5-1.5A1.5,1.5,0,0,0,57.1,64.9Z"></path> <path class="cls-1" d="M57.1,56.1H35.2a1.5,1.5,0,0,0-1.5,1.5,1.5,1.5,0,0,0,1.5,1.5H57.1a1.5,1.5,0,0,0,1.5-1.5A1.5,1.5,0,0,0,57.1,56.1Z"></path> <path class="cls-1" d="M84.6,72.8a1.5,1.5,0,0,0-1.5,1.5v7.3a1.5,1.5,0,0,0,3,0V74.3A1.5,1.5,0,0,0,84.6,72.8Z"></path> <path class="cls-1" d="M84.6,58.3a1.5,1.5,0,0,0-1.5,1.5V67a1.5,1.5,0,0,0,3,0V59.8A1.5,1.5,0,0,0,84.6,58.3Z"></path> <path class="cls-1" d="M84.6,43.7a1.5,1.5,0,0,0-1.5,1.5v7.3a1.5,1.5,0,0,0,3,0V45.2A1.5,1.5,0,0,0,84.6,43.7Z"></path> </svg> 