<?xml version="1.0" encoding="UTF-8"?> <svg xmlns="http://www.w3.org/2000/svg" id="Layer_1" data-name="Layer 1" viewBox="0 0 125 125"> <defs> <style>.cls-1{fill:red;}</style> </defs> <path class="cls-1" d="M110.4,63.3a1.6,1.6,0,0,0-2-.7L97.8,67.8l-7.2,3.1c-1.1-.3-4-1-6.5-1.8l-1.3-.5h-.5l-2.2-.8a44.7,44.7,0,0,1-8.8-5.3A88.9,88.9,0,0,1,64,54.2a1.6,1.6,0,0,0-1.9-.4c-1.4.8-6.2,2.8-8.7,2A13.3,13.3,0,0,1,49,53.3a5.4,5.4,0,0,1-.7-3.2c.6-.3,2.6.1,3.6.2s3.4.6,4.6.2,7.4-5,8.5-6,7-2.4,11.1-.8a17,17,0,0,0,6,1.1,18.8,18.8,0,0,0,7.2-1.4L104,35.5a1.4,1.4,0,0,0,.6-2,1.4,1.4,0,0,0-2-.7L87.9,40.7a14.7,14.7,0,0,1-10.7.2c-4.8-1.9-11,0-12.9.7-2.1-.8-8-2.9-10.6-2.5s-9.5.7-12.4.1c-1.2-.3-10.5-5.3-18.5-9.8a1.5,1.5,0,0,0-2.1.6,1.5,1.5,0,0,0,.6,2c5.3,3,17.7,9.9,19.4,10.2,3.5.6,11.1.2,13.4-.2s4.4.7,7.2,1.7c-2.1,1.7-4.6,3.6-5.7,3.9a9.3,9.3,0,0,1-3.2-.2c-2.3-.4-4.8-.8-6.2.6s-.7,5.8.5,7.2a15.4,15.4,0,0,0,5.9,3.5c3.2,1,7.7-.8,9.8-1.7,1.6,1.9,5.2,6.3,7,7.8a52,52,0,0,0,9.5,5.7,40.6,40.6,0,0,0,4.2,1.4l7,2.7a1.8,1.8,0,0,1,.9,1,4.4,4.4,0,0,1-.2,3A2.5,2.5,0,0,1,88.1,80l-.7-.2-9.5-4.9a1.4,1.4,0,0,0-2,.6,1.5,1.5,0,0,0,.6,2l9.6,5h.1a1.4,1.4,0,0,1-.1.9,2.9,2.9,0,0,0-.2.9,2.7,2.7,0,0,1-3.3,1.1l-8-3.5H73.2a.1.1,0,0,0-.1.1H73a.1.1,0,0,0-.1.1h-.2a.1.1,0,0,1-.1.1h0a.1.1,0,0,1-.1.1v.2h0v.2h0v.2a.1.1,0,0,0,.1.1h0c0,.1.1.1.1.2h.6l2.1,1.1a2.6,2.6,0,0,1,1.3,3.4,2.7,2.7,0,0,1-1.5,1.3,2.3,2.3,0,0,1-2-.1l-6-2.8,1.7-2.9a5.9,5.9,0,0,0-2-8.1h-.1a5.5,5.5,0,0,0-3.9-.8A7.4,7.4,0,0,0,59.5,69h0a7,7,0,0,0-7.5.3,5.9,5.9,0,0,0-10.7-1.1l-4,6.8-9.9-7.1h-.1a.1.1,0,0,0-.1-.1L16.6,62.6a1.6,1.6,0,0,0-2,.7,1.4,1.4,0,0,0,.6,2l10.6,5.1,10.1,7.3a5.9,5.9,0,0,0,2.6,6.8,6.7,6.7,0,0,0,3,.8h1A6.9,6.9,0,0,0,49.4,93l1.9-.2a10,10,0,0,0,2.1-1A5.8,5.8,0,0,0,56,95a6.4,6.4,0,0,0,3,.8,5.9,5.9,0,0,0,5.1-2.9l1.6-2.7,6.3,3a5.9,5.9,0,0,0,2.3.5,5.8,5.8,0,0,0,1.9-.3,5.7,5.7,0,0,0,3.2-2.9,5.8,5.8,0,0,0,.5-2.9l1.5.7a5.7,5.7,0,0,0,2.2.4,5.4,5.4,0,0,0,5.1-3.3,1.4,1.4,0,0,0,.2-.6.8.8,0,0,1,.1-.4,4.6,4.6,0,0,0,.2-1.4,5.8,5.8,0,0,0,4.3-3.1,7,7,0,0,0,.3-5.3,6.4,6.4,0,0,0-.8-1.4l6.1-2.7h0l10.7-5.2A1.4,1.4,0,0,0,110.4,63.3ZM40.1,81.9a2.9,2.9,0,0,1-1.1-4l4.9-8.2a2.9,2.9,0,0,1,2.5-1.4,2.9,2.9,0,0,1,2.5,4.3L44,80.9A2.9,2.9,0,0,1,40.1,81.9Zm10.4,8a4,4,0,0,1-4.4-6.1l6.2-10.6A4.2,4.2,0,0,1,56,71.1a3.9,3.9,0,0,1,2,.5,4.2,4.2,0,0,1,1.3,5.7L53,87.9A4.4,4.4,0,0,1,50.5,89.9Zm11,1.5a2.9,2.9,0,0,1-4,1,2.8,2.8,0,0,1-1-4l4.8-8.2a3,3,0,0,1,2.5-1.4,2.6,2.6,0,0,1,1.5.4,2.8,2.8,0,0,1,1,4l-2,3.4a1.6,1.6,0,0,0-1,.8,1.8,1.8,0,0,0-.1,1Z"></path> </svg> 