<svg width="887" height="632" viewBox="0 0 887 632" fill="none" xmlns="http://www.w3.org/2000/svg">
<g id="animation">
<g id="top logo">
<path id="main circle" d="M632.545 255C632.545 303.971 618.826 351.161 587.545 383.5C554.545 418.5 510.545 434.5 453.545 435C404.765 435 355.545 421.5 323.045 388C289.045 355.5 273.045 305.5 274.045 255C273.045 204.5 288.545 155 321.045 123C353.06 89.1994 402.663 72.7344 454.045 74C512.045 72 568.045 95 599.545 140C622.587 170.487 632.545 213.622 632.545 255Z" fill="white"/>
<g id="inner dot group">
<path id="inner circle" d="M510.525 364.94C497.85 389.574 478.744 401.889 453.225 401.889C427.668 401.889 408.505 389.574 395.731 364.94C382.953 340.31 376.568 303.484 376.573 254.451C376.573 205.211 382.958 168.328 395.731 143.793C408.505 119.267 427.672 107 453.239 107.004C478.758 107.004 497.859 119.267 510.539 143.783C523.223 168.3 529.551 205.187 529.527 254.442C529.527 303.484 523.195 340.32 510.525 364.94V364.94Z" fill="#E2001A"/>
<g id="inner dot">
<path id="Vector 1" d="M471.045 139L454.545 155.5L438.545 139.5L421.545 155.5L438.045 172L421.545 188.5L438.045 205L454.545 188.5L470.545 205.5L487.545 189L470.545 172.5L487.545 156L471.045 139Z" fill="black" stroke="black"/>
<path id="Vector 2" d="M471.045 222L454.545 238.5L438.545 222.5L421.545 238.5L438.045 255L421.545 271.5L438.045 288L454.545 271.5L470.545 288.5L487.545 272L470.545 255.5L487.545 239L471.045 222Z" fill="black" stroke="black"/>
<path id="Vector 3" d="M471.045 305L454.545 321.5L438.545 305.5L421.545 321.5L438.045 338L421.545 354.5L438.045 371L454.545 354.5L470.545 371.5L487.545 355L470.545 338.5L487.545 322L471.045 305Z" fill="black" stroke="black"/>
</g>
</g>
</g>
<g id="bottom texts">
<g id="seeds">
<path id="s" d="M759.668 529.866C759.847 534.485 760.08 537.063 760.366 537.601C761.154 539.069 762.622 540.358 764.771 541.468C766.955 542.578 769.479 543.133 772.344 543.133C775.853 543.133 778.467 542.417 780.186 540.984C781.94 539.552 782.817 537.654 782.817 535.291C782.817 533.25 782.191 531.639 780.938 530.457C779.684 529.275 776.999 528.237 772.881 527.342C766.65 525.981 762.586 524.799 760.688 523.797C758.826 522.758 757.34 521.237 756.23 519.231C755.12 517.226 754.565 514.827 754.565 512.034C754.565 508.74 755.389 505.822 757.036 503.279C758.683 500.737 761.047 498.75 764.126 497.317C767.241 495.849 771.341 495.115 776.426 495.115C781.725 495.115 786.649 495.975 791.196 497.693C790.695 500.594 790.355 505.105 790.176 511.229H785.933C785.718 507.361 785.413 505.088 785.02 504.407C784.482 503.369 783.462 502.492 781.958 501.775C779.881 500.809 777.661 500.325 775.298 500.325C772.29 500.325 769.945 501.006 768.262 502.366C766.615 503.691 765.791 505.374 765.791 507.415C765.791 509.313 766.543 510.817 768.047 511.927C769.551 513.073 773.132 514.165 778.789 515.203C782.692 515.919 785.396 516.582 786.899 517.19C789.406 518.265 791.304 519.84 792.593 521.917C793.918 523.958 794.58 526.554 794.58 529.705C794.58 535.757 792.235 540.394 787.544 543.616C782.853 546.839 777.267 548.45 770.786 548.45C768.638 548.45 766.257 548.2 763.643 547.698C761.029 547.197 758.182 546.463 755.103 545.496L754.297 544.583C754.727 541.468 754.995 536.562 755.103 529.866H759.668Z" fill="white"/>
<path id="d" d="M725.667 497.425V488.133C725.667 482.368 725.542 479.02 725.291 478.089C725.112 477.409 724.754 476.943 724.217 476.692C723.715 476.406 721.299 476.209 716.966 476.102V472.234C725.524 471.303 732.703 469.585 738.504 467.078L739.9 468.367C739.542 474.132 739.327 479.593 739.256 484.749L738.88 526.912C738.88 533.966 739.005 538.263 739.256 539.803C739.399 540.77 739.739 541.45 740.276 541.844C740.849 542.202 743.051 542.542 746.883 542.864V547.322C742.514 547.107 738.253 547 734.1 547C731.092 547 728.281 547.107 725.667 547.322L724.754 546.678C725.184 543.061 725.488 540.143 725.667 537.923C723.232 539.749 719.347 542.882 714.012 547.322C711.971 548.074 710.055 548.45 708.265 548.45C702.321 548.45 697.361 546.248 693.387 541.844C689.448 537.404 687.479 531.513 687.479 524.173C687.479 520.592 687.872 517.352 688.66 514.451C689.484 511.515 690.433 509.313 691.507 507.845C692.617 506.377 694.819 504.497 698.113 502.205C702.589 499.09 705.848 497.138 707.889 496.351C709.965 495.527 712.221 495.115 714.656 495.115C716.411 495.115 718.201 495.312 720.027 495.706C721.854 496.064 723.733 496.637 725.667 497.425ZM725.667 508.919C723.984 506.52 722.068 504.729 719.92 503.548C717.771 502.366 715.39 501.775 712.776 501.775C709.088 501.775 706.259 503.1 704.29 505.75C702.321 508.364 701.336 512.768 701.336 518.963C701.336 525.337 702.535 530.099 704.935 533.25C707.369 536.401 710.467 537.977 714.227 537.977C716.769 537.977 719.114 537.243 721.263 535.774C723.447 534.306 724.718 532.964 725.076 531.746C725.47 530.529 725.667 525.91 725.667 517.889V508.919Z" fill="white"/>
<path id="e" d="M674.964 536.902L676.521 538.46L674.104 543.616C671.526 545.228 668.751 546.427 665.779 547.215C662.843 548.038 659.71 548.45 656.38 548.45C648.574 548.45 642.415 546.194 637.903 541.683C633.427 537.135 631.189 530.761 631.189 522.562C631.189 517.369 631.852 513.073 633.177 509.671C634.251 506.914 636.006 504.622 638.44 502.796C640.911 500.97 643.74 499.233 646.927 497.586C650.149 495.939 653.676 495.115 657.508 495.115C663.38 495.115 668.232 496.762 672.063 500.057C675.895 503.315 677.811 508.579 677.811 515.848C677.811 516.743 677.757 518.104 677.649 519.93L668.841 521.541C666.119 521.72 662.181 521.81 657.024 521.81H645.369C645.906 527.968 647.75 532.605 650.901 535.721C654.052 538.836 658.063 540.394 662.933 540.394C664.974 540.394 666.997 540.107 669.002 539.534C671.007 538.925 672.994 538.048 674.964 536.902ZM644.993 516.116C648.216 516.403 651.438 516.546 654.661 516.546C657.49 516.546 660.462 516.403 663.577 516.116L663.631 513.592C663.631 509.188 662.825 505.983 661.214 503.978C659.603 501.937 657.418 500.916 654.661 500.916C652.728 500.916 651.062 501.399 649.666 502.366C648.27 503.297 647.231 504.622 646.551 506.341C645.87 508.06 645.351 511.318 644.993 516.116Z" fill="white"/>
<path id="e_2" d="M619.964 536.902L621.521 538.46L619.104 543.616C616.526 545.228 613.751 546.427 610.779 547.215C607.843 548.038 604.71 548.45 601.38 548.45C593.574 548.45 587.415 546.194 582.903 541.683C578.427 537.135 576.189 530.761 576.189 522.562C576.189 517.369 576.852 513.073 578.177 509.671C579.251 506.914 581.006 504.622 583.44 502.796C585.911 500.97 588.74 499.233 591.927 497.586C595.149 495.939 598.676 495.115 602.508 495.115C608.38 495.115 613.232 496.762 617.063 500.057C620.895 503.315 622.811 508.579 622.811 515.848C622.811 516.743 622.757 518.104 622.649 519.93L613.841 521.541C611.119 521.72 607.181 521.81 602.024 521.81H590.369C590.906 527.968 592.75 532.605 595.901 535.721C599.052 538.836 603.063 540.394 607.933 540.394C609.974 540.394 611.997 540.107 614.002 539.534C616.007 538.925 617.994 538.048 619.964 536.902ZM589.993 516.116C593.216 516.403 596.438 516.546 599.661 516.546C602.49 516.546 605.462 516.403 608.577 516.116L608.631 513.592C608.631 509.188 607.825 505.983 606.214 503.978C604.603 501.937 602.418 500.916 599.661 500.916C597.728 500.916 596.062 501.399 594.666 502.366C593.27 503.297 592.231 504.622 591.551 506.341C590.87 508.06 590.351 511.318 589.993 516.116Z" fill="white"/>
<path id="S" d="M511.681 524.656H516.407C516.443 529.956 516.604 533.071 516.891 534.002C517.213 534.897 518.251 536.097 520.006 537.601C521.76 539.069 524.034 540.268 526.827 541.199C529.62 542.13 532.485 542.596 535.421 542.596C540.47 542.596 544.498 541.253 547.506 538.567C550.549 535.882 552.071 532.534 552.071 528.523C552.071 524.835 551.069 522.007 549.063 520.037C547.022 518.068 543.155 516.671 537.462 515.848C529.011 514.63 523.3 513.305 520.328 511.873C517.392 510.441 515.064 508.292 513.346 505.428C511.663 502.563 510.821 499.126 510.821 495.115C510.821 488.383 513.185 482.69 517.911 478.035C522.674 473.344 530.265 470.999 540.685 470.999C544.767 470.999 548.383 471.303 551.534 471.912C554.721 472.521 557.908 473.523 561.095 474.92L561.632 476.209C561.059 478.465 560.647 480.506 560.396 482.332C560.182 484.158 559.985 487.309 559.806 491.785H555.133C554.954 486.271 554.685 483.174 554.327 482.493C553.647 481.312 551.91 480.076 549.117 478.787C546.36 477.462 543.191 476.8 539.61 476.8C534.705 476.8 530.891 477.999 528.17 480.398C525.484 482.762 524.142 485.823 524.142 489.583C524.142 491.875 524.697 493.88 525.807 495.599C526.917 497.282 528.456 498.535 530.426 499.358C532.431 500.146 536.71 501.059 543.263 502.098C549.207 502.993 553.235 503.87 555.348 504.729C558.821 506.126 561.453 508.257 563.243 511.121C565.034 513.986 565.929 517.602 565.929 521.971C565.929 529.562 563.028 535.882 557.228 540.931C551.427 545.944 543.495 548.45 533.434 548.45C528.958 548.45 524.894 548.021 521.241 547.161C517.589 546.302 513.811 544.887 509.908 542.918C510.553 540.411 510.982 538.138 511.197 536.097C511.484 533.268 511.645 529.454 511.681 524.656Z" fill="white"/>
</g>
<g id="serious">
<path id="S_2" d="M114.681 524.656H119.407C119.443 529.956 119.604 533.071 119.891 534.002C120.213 534.897 121.251 536.097 123.006 537.601C124.76 539.069 127.034 540.268 129.827 541.199C132.62 542.13 135.485 542.596 138.421 542.596C143.47 542.596 147.498 541.253 150.506 538.567C153.549 535.882 155.071 532.534 155.071 528.523C155.071 524.835 154.069 522.007 152.063 520.037C150.022 518.068 146.155 516.671 140.462 515.848C132.011 514.63 126.3 513.305 123.328 511.873C120.392 510.441 118.064 508.292 116.346 505.428C114.663 502.563 113.821 499.126 113.821 495.115C113.821 488.383 116.185 482.69 120.911 478.035C125.674 473.344 133.265 470.999 143.685 470.999C147.767 470.999 151.383 471.303 154.534 471.912C157.721 472.521 160.908 473.523 164.095 474.92L164.632 476.209C164.059 478.465 163.647 480.506 163.396 482.332C163.182 484.158 162.985 487.309 162.806 491.785H158.133C157.954 486.271 157.685 483.174 157.327 482.493C156.647 481.312 154.91 480.076 152.117 478.787C149.36 477.462 146.191 476.8 142.61 476.8C137.705 476.8 133.891 477.999 131.17 480.398C128.484 482.762 127.142 485.823 127.142 489.583C127.142 491.875 127.697 493.88 128.807 495.599C129.917 497.282 131.456 498.535 133.426 499.358C135.431 500.146 139.71 501.059 146.263 502.098C152.207 502.993 156.235 503.87 158.348 504.729C161.821 506.126 164.453 508.257 166.243 511.121C168.034 513.986 168.929 517.602 168.929 521.971C168.929 529.562 166.028 535.882 160.228 540.931C154.427 545.944 146.495 548.45 136.434 548.45C131.958 548.45 127.894 548.021 124.241 547.161C120.589 546.302 116.811 544.887 112.908 542.918C113.553 540.411 113.982 538.138 114.197 536.097C114.484 533.268 114.645 529.454 114.681 524.656Z" fill="white"/>
<path id="s_2" d="M448.668 529.866C448.847 534.485 449.08 537.063 449.366 537.601C450.154 539.069 451.622 540.358 453.771 541.468C455.955 542.578 458.479 543.133 461.344 543.133C464.853 543.133 467.467 542.417 469.186 540.984C470.94 539.552 471.817 537.654 471.817 535.291C471.817 533.25 471.191 531.639 469.938 530.457C468.684 529.275 465.999 528.237 461.881 527.342C455.65 525.981 451.586 524.799 449.688 523.797C447.826 522.758 446.34 521.237 445.23 519.231C444.12 517.226 443.565 514.827 443.565 512.034C443.565 508.74 444.389 505.822 446.036 503.279C447.683 500.737 450.047 498.75 453.126 497.317C456.241 495.849 460.341 495.115 465.426 495.115C470.725 495.115 475.649 495.975 480.196 497.693C479.695 500.594 479.355 505.105 479.176 511.229H474.933C474.718 507.361 474.413 505.088 474.02 504.407C473.482 503.369 472.462 502.492 470.958 501.775C468.881 500.809 466.661 500.325 464.298 500.325C461.29 500.325 458.945 501.006 457.262 502.366C455.615 503.691 454.791 505.374 454.791 507.415C454.791 509.313 455.543 510.817 457.047 511.927C458.551 513.073 462.132 514.165 467.789 515.203C471.692 515.919 474.396 516.582 475.899 517.19C478.406 518.265 480.304 519.84 481.593 521.917C482.918 523.958 483.58 526.554 483.58 529.705C483.58 535.757 481.235 540.394 476.544 543.616C471.853 546.839 466.267 548.45 459.786 548.45C457.638 548.45 455.257 548.2 452.643 547.698C450.029 547.197 447.182 546.463 444.103 545.496L443.297 544.583C443.727 541.468 443.995 536.562 444.103 529.866H448.668Z" fill="white"/>
<path id="u" d="M373.095 503.816V499.681C378.824 499.144 384.177 498.123 389.154 496.619L394.472 494.739C395.116 494.739 395.438 495.151 395.438 495.975L395.224 499.144C394.615 507.379 394.311 515.328 394.311 522.991C394.311 527.933 394.561 531.227 395.062 532.874C395.564 534.485 396.459 535.739 397.748 536.634C399.073 537.529 400.827 537.977 403.012 537.977C405.554 537.977 407.774 537.278 409.672 535.882C411.605 534.485 412.787 532.946 413.217 531.263C413.682 529.58 413.915 524.782 413.915 516.868C413.915 510.53 413.808 506.824 413.593 505.75C413.45 505.177 413.199 504.783 412.841 504.568C412.304 504.282 409.869 504.031 405.536 503.816V499.681C412.877 498.857 418.266 497.89 421.703 496.78L427.396 494.739C428.005 494.739 428.31 495.115 428.31 495.867L428.202 497.317C427.593 503.548 427.289 514.845 427.289 531.209C427.289 536.222 427.432 539.373 427.719 540.662C427.898 541.271 428.184 541.701 428.578 541.951C429.151 542.273 431.407 542.578 435.346 542.864V547.322C431.228 547.107 427.146 547 423.1 547C419.805 547 416.744 547.107 413.915 547.322L413.432 546.355C413.611 544.565 413.772 541.754 413.915 537.923C410.585 540.608 407.362 543.562 404.247 546.785C401.705 547.895 399.198 548.45 396.728 548.45C393.433 548.45 390.569 547.788 388.134 546.463C385.699 545.138 383.891 543.419 382.709 541.307C381.563 539.158 380.99 536.15 380.99 532.283L381.098 526.429C381.205 522.812 381.259 519.876 381.259 517.62C381.259 511.246 381.133 507.433 380.883 506.18C380.704 505.356 380.328 504.783 379.755 504.461C379.182 504.103 376.962 503.888 373.095 503.816Z" fill="white"/>
<path id="o" d="M313.404 521.81C313.404 513.323 315.392 506.95 319.366 502.688C324.129 497.64 331.004 495.115 339.991 495.115C348.943 495.115 355.478 497.138 359.596 501.185C363.714 505.231 365.772 511.622 365.772 520.359C365.772 529.347 363.391 536.276 358.629 541.146C353.902 546.015 347.314 548.45 338.863 548.45C330.556 548.45 324.236 546.176 319.903 541.629C315.571 537.081 313.404 530.475 313.404 521.81ZM328.282 518.104C328.282 527.628 329.5 534.414 331.935 538.46C333.832 541.575 336.679 543.133 340.475 543.133C343.805 543.133 346.365 541.808 348.155 539.158C349.981 536.508 350.895 531.692 350.895 524.71C350.895 515.114 349.785 508.471 347.564 504.783C345.738 501.847 342.892 500.379 339.024 500.379C335.694 500.379 333.062 501.722 331.129 504.407C329.231 507.093 328.282 511.658 328.282 518.104Z" fill="white"/>
<path id="i" d="M290.369 469.441C292.661 469.441 294.612 470.265 296.224 471.912C297.871 473.523 298.694 475.493 298.694 477.82C298.694 480.112 297.871 482.081 296.224 483.729C294.612 485.34 292.643 486.146 290.315 486.146C288.024 486.146 286.054 485.34 284.407 483.729C282.796 482.081 281.99 480.112 281.99 477.82C281.99 475.493 282.796 473.523 284.407 471.912C286.054 470.265 288.042 469.441 290.369 469.441ZM275.384 547.322V542.864C279.43 542.721 281.757 542.47 282.366 542.112C283.011 541.754 283.423 540.752 283.602 539.104C283.888 536.849 284.031 531.871 284.031 524.173C284.031 520.843 283.978 517.763 283.87 514.935L283.709 508.65C283.709 506.574 283.476 505.302 283.011 504.837C282.581 504.336 281.382 504.049 279.412 503.978L275.384 503.816V499.681C284.013 499.036 291.121 497.514 296.707 495.115L298.05 496.189C297.549 503.029 297.298 512.983 297.298 526.053C297.298 533.608 297.423 538.174 297.674 539.749C297.853 540.859 298.175 541.575 298.641 541.897C299.142 542.22 301.505 542.542 305.73 542.864V547.322C299.249 547.107 294.236 547 290.691 547C288.794 547 283.691 547.107 275.384 547.322Z" fill="white"/>
<path id="r" d="M230.128 547.322V542.864C233.744 542.685 235.821 542.47 236.358 542.22C236.788 542.005 237.128 541.665 237.379 541.199C237.773 540.34 238.006 538.442 238.077 535.506C238.22 530.278 238.292 525.516 238.292 521.219C238.292 512.947 238.185 508.042 237.97 506.502C237.862 505.607 237.54 504.98 237.003 504.622C236.466 504.228 234.174 503.96 230.128 503.816V499.681C237.361 499 242.535 498.159 245.65 497.156L251.183 495.115C251.684 495.115 251.935 495.455 251.935 496.136L251.881 496.888C251.738 499.144 251.666 502.384 251.666 506.609C253.492 504.855 255.515 502.635 257.735 499.949C259.382 497.944 260.815 496.637 262.032 496.028C263.25 495.42 264.879 495.115 266.92 495.115C268.066 495.115 269.229 495.312 270.411 495.706C270.089 499.287 269.874 504.157 269.767 510.315L267.35 511.175C266.526 509.778 265.613 508.812 264.61 508.274C263.644 507.701 262.372 507.415 260.797 507.415C258.648 507.415 256.804 507.97 255.265 509.08C253.725 510.19 252.74 511.461 252.311 512.894C252.024 513.968 251.881 517.62 251.881 523.851C251.881 532.91 252.006 538.191 252.257 539.695C252.4 540.698 252.74 541.378 253.277 541.736C254.101 542.273 256.804 542.649 261.388 542.864V547.322L255.372 547.161C251.541 547.054 248.229 547 245.436 547C242.786 547 239.706 547.054 236.197 547.161L230.128 547.322Z" fill="white"/>
<path id="e_3" d="M221.964 536.902L223.521 538.46L221.104 543.616C218.526 545.228 215.751 546.427 212.779 547.215C209.843 548.038 206.71 548.45 203.38 548.45C195.574 548.45 189.415 546.194 184.903 541.683C180.427 537.135 178.189 530.761 178.189 522.562C178.189 517.369 178.852 513.073 180.177 509.671C181.251 506.914 183.006 504.622 185.44 502.796C187.911 500.97 190.74 499.233 193.927 497.586C197.149 495.939 200.676 495.115 204.508 495.115C210.38 495.115 215.232 496.762 219.063 500.057C222.895 503.315 224.811 508.579 224.811 515.848C224.811 516.743 224.757 518.104 224.649 519.93L215.841 521.541C213.119 521.72 209.181 521.81 204.024 521.81H192.369C192.906 527.968 194.75 532.605 197.901 535.721C201.052 538.836 205.063 540.394 209.933 540.394C211.974 540.394 213.997 540.107 216.002 539.534C218.007 538.925 219.994 538.048 221.964 536.902ZM191.993 516.116C195.216 516.403 198.438 516.546 201.661 516.546C204.49 516.546 207.462 516.403 210.577 516.116L210.631 513.592C210.631 509.188 209.825 505.983 208.214 503.978C206.603 501.937 204.418 500.916 201.661 500.916C199.728 500.916 198.062 501.399 196.666 502.366C195.27 503.297 194.231 504.622 193.551 506.341C192.87 508.06 192.351 511.318 191.993 516.116Z" fill="white"/>
</g>
<g id="Group 2">
<path id="text inner circle" d="M348.894 538.487C346.822 542.163 343.7 544 339.529 544C335.351 544 332.219 542.163 330.131 538.487C328.043 534.812 326.999 529.317 327 522.001C327 514.654 328.044 509.15 330.131 505.489C332.219 501.83 335.352 499.999 339.531 500C343.702 500 346.824 501.83 348.896 505.488C350.97 509.146 352.004 514.65 352 521.999C352 529.317 350.965 534.813 348.894 538.487V538.487Z" fill="#E2001A"/>
<g id="inner dot_2">
<path id="Vector 1_2" d="M342.119 504.626L339.422 507.088L336.807 504.7L334.028 507.088L336.725 509.55L334.028 512.011L336.725 514.473L339.422 512.011L342.037 514.548L344.816 512.086L342.037 509.624L344.816 507.162L342.119 504.626Z" fill="black" stroke="black"/>
<path id="Vector 2_2" d="M342.119 517.01L339.422 519.472L336.807 517.085L334.028 519.472L336.725 521.934L334.028 524.396L336.725 526.858L339.422 524.396L342.037 526.933L344.816 524.471L342.037 522.009L344.816 519.547L342.119 517.01Z" fill="black" stroke="black"/>
<path id="Vector 3_2" d="M342.119 529.395L339.422 531.857L336.807 529.469L334.028 531.857L336.725 534.319L334.028 536.781L336.725 539.243L339.422 536.781L342.037 539.317L344.816 536.855L342.037 534.393L344.816 531.931L342.119 529.395Z" fill="black" stroke="black"/>
</g>
</g>
</g>
</g>
</svg>
