<svg width="757" height="588" viewBox="0 0 757 588" fill="none" xmlns="http://www.w3.org/2000/svg">
<g id="animated svg">
<rect id="Rectangle 1" width="757" height="588" fill="#C4C4C4"/>
<g id="top logo">
<path id="main circle" d="M544.545 229C544.545 277.971 530.826 325.161 499.545 357.5C466.545 392.5 422.545 408.5 365.545 409C316.765 409 267.545 395.5 235.045 362C201.045 329.5 185.045 279.5 186.045 229C185.045 178.5 200.545 129 233.045 97C265.06 63.1994 314.663 46.7344 366.045 48C424.045 46 480.045 69 511.545 114C534.587 144.487 544.545 187.622 544.545 229Z" fill="white"/>
<g id="inner dot group">
<path id="inner circle" d="M422.525 338.94C409.85 363.574 390.744 375.889 365.225 375.889C339.668 375.889 320.505 363.574 307.731 338.94C294.953 314.31 288.568 277.484 288.573 228.451C288.573 179.211 294.958 142.328 307.731 117.793C320.505 93.2671 339.672 80.9995 365.239 81.0042C390.758 81.0042 409.859 93.2671 422.539 117.783C435.223 142.3 441.551 179.187 441.527 228.442C441.527 277.484 435.195 314.32 422.525 338.94V338.94Z" fill="#E2001A"/>
<g id="inner dot">
<path id="Vector 1" d="M383.045 113L366.545 129.5L350.545 113.5L333.545 129.5L350.045 146L333.545 162.5L350.045 179L366.545 162.5L382.545 179.5L399.545 163L382.545 146.5L399.545 130L383.045 113Z" fill="black" stroke="black"/>
<path id="Vector 2" d="M383.045 196L366.545 212.5L350.545 196.5L333.545 212.5L350.045 229L333.545 245.5L350.045 262L366.545 245.5L382.545 262.5L399.545 246L382.545 229.5L399.545 213L383.045 196Z" fill="black" stroke="black"/>
<path id="Vector 3" d="M383.045 279L366.545 295.5L350.545 279.5L333.545 295.5L350.045 312L333.545 328.5L350.045 345L366.545 328.5L382.545 345.5L399.545 329L382.545 312.5L399.545 296L383.045 279Z" fill="black" stroke="black"/>
</g>
</g>
</g>
<g id="texts">
<path id="Serious Seeds" d="M30.6807 515.656H35.4072C35.443 520.956 35.6042 524.071 35.8906 525.002C36.2129 525.897 37.2513 527.097 39.0059 528.601C40.7604 530.069 43.0342 531.268 45.8271 532.199C48.6201 533.13 51.4847 533.596 54.4209 533.596C59.4697 533.596 63.498 532.253 66.5059 529.567C69.5495 526.882 71.0713 523.534 71.0713 519.523C71.0713 515.835 70.0687 513.007 68.0635 511.037C66.0225 509.068 62.1553 507.671 56.4619 506.848C48.0114 505.63 42.3001 504.305 39.3281 502.873C36.3919 501.441 34.0645 499.292 32.3457 496.428C30.6628 493.563 29.8213 490.126 29.8213 486.115C29.8213 479.383 32.1846 473.69 36.9111 469.035C41.6735 464.344 49.2646 461.999 59.6846 461.999C63.7666 461.999 67.3831 462.303 70.5342 462.912C73.721 463.521 76.9079 464.523 80.0947 465.92L80.6318 467.209C80.0589 469.465 79.6471 471.506 79.3965 473.332C79.1816 475.158 78.9847 478.309 78.8057 482.785H74.1328C73.9538 477.271 73.6852 474.174 73.3271 473.493C72.6468 472.312 70.9102 471.076 68.1172 469.787C65.36 468.462 62.1911 467.8 58.6104 467.8C53.7048 467.8 49.8913 468.999 47.1699 471.398C44.4844 473.762 43.1416 476.823 43.1416 480.583C43.1416 482.875 43.6966 484.88 44.8066 486.599C45.9167 488.282 47.4564 489.535 49.4258 490.358C51.431 491.146 55.71 492.059 62.2627 493.098C68.2067 493.993 72.235 494.87 74.3477 495.729C77.821 497.126 80.4528 499.257 82.2432 502.121C84.0335 504.986 84.9287 508.602 84.9287 512.971C84.9287 520.562 82.0283 526.882 76.2275 531.931C70.4268 536.944 62.4954 539.45 52.4336 539.45C47.9577 539.45 43.8936 539.021 40.2412 538.161C36.5889 537.302 32.8112 535.887 28.9082 533.918C29.5527 531.411 29.9824 529.138 30.1973 527.097C30.4837 524.268 30.6449 520.454 30.6807 515.656ZM138.21 527.902L139.768 529.46L137.351 534.616C134.772 536.228 131.997 537.427 129.025 538.215C126.089 539.038 122.956 539.45 119.626 539.45C111.82 539.45 105.661 537.194 101.149 532.683C96.6735 528.135 94.4355 521.761 94.4355 513.562C94.4355 508.369 95.098 504.073 96.4229 500.671C97.4971 497.914 99.2516 495.622 101.687 493.796C104.157 491.97 106.986 490.233 110.173 488.586C113.396 486.939 116.923 486.115 120.754 486.115C126.626 486.115 131.478 487.762 135.31 491.057C139.141 494.315 141.057 499.579 141.057 506.848C141.057 507.743 141.003 509.104 140.896 510.93L132.087 512.541C129.366 512.72 125.427 512.81 120.271 512.81H108.615C109.152 518.968 110.996 523.605 114.147 526.721C117.299 529.836 121.309 531.394 126.179 531.394C128.22 531.394 130.243 531.107 132.248 530.534C134.253 529.925 136.241 529.048 138.21 527.902ZM108.239 507.116C111.462 507.403 114.685 507.546 117.907 507.546C120.736 507.546 123.708 507.403 126.823 507.116L126.877 504.592C126.877 500.188 126.071 496.983 124.46 494.978C122.849 492.937 120.664 491.916 117.907 491.916C115.974 491.916 114.309 492.399 112.912 493.366C111.516 494.297 110.477 495.622 109.797 497.341C109.117 499.06 108.597 502.318 108.239 507.116ZM146.374 538.322V533.864C149.991 533.685 152.067 533.47 152.604 533.22C153.034 533.005 153.374 532.665 153.625 532.199C154.019 531.34 154.252 529.442 154.323 526.506C154.466 521.278 154.538 516.516 154.538 512.219C154.538 503.947 154.431 499.042 154.216 497.502C154.108 496.607 153.786 495.98 153.249 495.622C152.712 495.228 150.42 494.96 146.374 494.816V490.681C153.607 490 158.781 489.159 161.896 488.156L167.429 486.115C167.93 486.115 168.181 486.455 168.181 487.136L168.127 487.888C167.984 490.144 167.912 493.384 167.912 497.609C169.738 495.855 171.761 493.635 173.981 490.949C175.629 488.944 177.061 487.637 178.278 487.028C179.496 486.42 181.125 486.115 183.166 486.115C184.312 486.115 185.476 486.312 186.657 486.706C186.335 490.287 186.12 495.157 186.013 501.315L183.596 502.175C182.772 500.778 181.859 499.812 180.856 499.274C179.89 498.701 178.618 498.415 177.043 498.415C174.895 498.415 173.05 498.97 171.511 500.08C169.971 501.19 168.986 502.461 168.557 503.894C168.27 504.968 168.127 508.62 168.127 514.851C168.127 523.91 168.252 529.191 168.503 530.695C168.646 531.698 168.986 532.378 169.523 532.736C170.347 533.273 173.05 533.649 177.634 533.864V538.322L171.618 538.161C167.787 538.054 164.475 538 161.682 538C159.032 538 155.952 538.054 152.443 538.161L146.374 538.322ZM206.477 460.441C208.768 460.441 210.72 461.265 212.331 462.912C213.978 464.523 214.802 466.493 214.802 468.82C214.802 471.112 213.978 473.081 212.331 474.729C210.72 476.34 208.75 477.146 206.423 477.146C204.131 477.146 202.162 476.34 200.515 474.729C198.903 473.081 198.098 471.112 198.098 468.82C198.098 466.493 198.903 464.523 200.515 462.912C202.162 461.265 204.149 460.441 206.477 460.441ZM191.491 538.322V533.864C195.537 533.721 197.865 533.47 198.474 533.112C199.118 532.754 199.53 531.752 199.709 530.104C199.995 527.849 200.139 522.871 200.139 515.173C200.139 511.843 200.085 508.763 199.978 505.935L199.816 499.65C199.816 497.574 199.584 496.302 199.118 495.837C198.688 495.336 197.489 495.049 195.52 494.978L191.491 494.816V490.681C200.121 490.036 207.229 488.514 212.814 486.115L214.157 487.189C213.656 494.029 213.405 503.983 213.405 517.053C213.405 524.608 213.531 529.174 213.781 530.749C213.96 531.859 214.283 532.575 214.748 532.897C215.249 533.22 217.613 533.542 221.838 533.864V538.322C215.357 538.107 210.344 538 206.799 538C204.901 538 199.799 538.107 191.491 538.322ZM229.143 512.81C229.143 504.323 231.13 497.95 235.104 493.688C239.867 488.64 246.742 486.115 255.729 486.115C264.681 486.115 271.216 488.138 275.334 492.185C279.452 496.231 281.511 502.622 281.511 511.359C281.511 520.347 279.13 527.276 274.367 532.146C269.641 537.015 263.052 539.45 254.602 539.45C246.294 539.45 239.974 537.176 235.642 532.629C231.309 528.081 229.143 521.475 229.143 512.81ZM244.021 509.104C244.021 518.628 245.238 525.414 247.673 529.46C249.571 532.575 252.417 534.133 256.213 534.133C259.543 534.133 262.103 532.808 263.894 530.158C265.72 527.508 266.633 522.692 266.633 515.71C266.633 506.114 265.523 499.471 263.303 495.783C261.477 492.847 258.63 491.379 254.763 491.379C251.433 491.379 248.801 492.722 246.867 495.407C244.969 498.093 244.021 502.658 244.021 509.104ZM288.063 494.816V490.681C293.793 490.144 299.146 489.123 304.123 487.619L309.44 485.739C310.085 485.739 310.407 486.151 310.407 486.975L310.192 490.144C309.584 498.379 309.279 506.328 309.279 513.991C309.279 518.933 309.53 522.227 310.031 523.874C310.533 525.485 311.428 526.739 312.717 527.634C314.042 528.529 315.796 528.977 317.98 528.977C320.523 528.977 322.743 528.278 324.641 526.882C326.574 525.485 327.756 523.946 328.186 522.263C328.651 520.58 328.884 515.782 328.884 507.868C328.884 501.53 328.776 497.824 328.562 496.75C328.418 496.177 328.168 495.783 327.81 495.568C327.272 495.282 324.838 495.031 320.505 494.816V490.681C327.845 489.857 333.234 488.89 336.672 487.78L342.365 485.739C342.974 485.739 343.278 486.115 343.278 486.867L343.171 488.317C342.562 494.548 342.258 505.845 342.258 522.209C342.258 527.222 342.401 530.373 342.688 531.662C342.867 532.271 343.153 532.701 343.547 532.951C344.12 533.273 346.376 533.578 350.314 533.864V538.322C346.197 538.107 342.115 538 338.068 538C334.774 538 331.713 538.107 328.884 538.322L328.4 537.355C328.579 535.565 328.741 532.754 328.884 528.923C325.554 531.608 322.331 534.562 319.216 537.785C316.674 538.895 314.167 539.45 311.696 539.45C308.402 539.45 305.537 538.788 303.103 537.463C300.668 536.138 298.859 534.419 297.678 532.307C296.532 530.158 295.959 527.15 295.959 523.283L296.066 517.429C296.174 513.812 296.228 510.876 296.228 508.62C296.228 502.246 296.102 498.433 295.852 497.18C295.673 496.356 295.297 495.783 294.724 495.461C294.151 495.103 291.931 494.888 288.063 494.816ZM362.883 520.866C363.062 525.485 363.295 528.063 363.581 528.601C364.369 530.069 365.837 531.358 367.985 532.468C370.17 533.578 372.694 534.133 375.559 534.133C379.068 534.133 381.682 533.417 383.4 531.984C385.155 530.552 386.032 528.654 386.032 526.291C386.032 524.25 385.406 522.639 384.152 521.457C382.899 520.275 380.214 519.237 376.096 518.342C369.865 516.981 365.801 515.799 363.903 514.797C362.041 513.758 360.555 512.237 359.445 510.231C358.335 508.226 357.78 505.827 357.78 503.034C357.78 499.74 358.604 496.822 360.251 494.279C361.898 491.737 364.261 489.75 367.341 488.317C370.456 486.849 374.556 486.115 379.641 486.115C384.94 486.115 389.864 486.975 394.411 488.693C393.91 491.594 393.57 496.105 393.391 502.229H389.147C388.933 498.361 388.628 496.088 388.234 495.407C387.697 494.369 386.677 493.492 385.173 492.775C383.096 491.809 380.876 491.325 378.513 491.325C375.505 491.325 373.16 492.006 371.477 493.366C369.829 494.691 369.006 496.374 369.006 498.415C369.006 500.313 369.758 501.817 371.262 502.927C372.766 504.073 376.346 505.165 382.004 506.203C385.907 506.919 388.61 507.582 390.114 508.19C392.621 509.265 394.519 510.84 395.808 512.917C397.132 514.958 397.795 517.554 397.795 520.705C397.795 526.757 395.45 531.394 390.759 534.616C386.068 537.839 380.482 539.45 374.001 539.45C371.853 539.45 369.471 539.2 366.857 538.698C364.243 538.197 361.397 537.463 358.317 536.496L357.512 535.583C357.941 532.468 358.21 527.562 358.317 520.866H362.883ZM437.272 515.656H441.999C442.035 520.956 442.196 524.071 442.482 525.002C442.805 525.897 443.843 527.097 445.598 528.601C447.352 530.069 449.626 531.268 452.419 532.199C455.212 533.13 458.076 533.596 461.013 533.596C466.062 533.596 470.09 532.253 473.098 529.567C476.141 526.882 477.663 523.534 477.663 519.523C477.663 515.835 476.66 513.007 474.655 511.037C472.614 509.068 468.747 507.671 463.054 506.848C454.603 505.63 448.892 504.305 445.92 502.873C442.984 501.441 440.656 499.292 438.938 496.428C437.255 493.563 436.413 490.126 436.413 486.115C436.413 479.383 438.776 473.69 443.503 469.035C448.265 464.344 455.856 461.999 466.276 461.999C470.358 461.999 473.975 462.303 477.126 462.912C480.313 463.521 483.5 464.523 486.687 465.92L487.224 467.209C486.651 469.465 486.239 471.506 485.988 473.332C485.773 475.158 485.576 478.309 485.397 482.785H480.725C480.546 477.271 480.277 474.174 479.919 473.493C479.239 472.312 477.502 471.076 474.709 469.787C471.952 468.462 468.783 467.8 465.202 467.8C460.297 467.8 456.483 468.999 453.762 471.398C451.076 473.762 449.733 476.823 449.733 480.583C449.733 482.875 450.288 484.88 451.398 486.599C452.508 488.282 454.048 489.535 456.018 490.358C458.023 491.146 462.302 492.059 468.854 493.098C474.799 493.993 478.827 494.87 480.939 495.729C484.413 497.126 487.045 499.257 488.835 502.121C490.625 504.986 491.521 508.602 491.521 512.971C491.521 520.562 488.62 526.882 482.819 531.931C477.019 536.944 469.087 539.45 459.025 539.45C454.549 539.45 450.485 539.021 446.833 538.161C443.181 537.302 439.403 535.887 435.5 533.918C436.145 531.411 436.574 529.138 436.789 527.097C437.076 524.268 437.237 520.454 437.272 515.656ZM544.802 527.902L546.359 529.46L543.942 534.616C541.364 536.228 538.589 537.427 535.617 538.215C532.681 539.038 529.548 539.45 526.218 539.45C518.412 539.45 512.253 537.194 507.741 532.683C503.265 528.135 501.027 521.761 501.027 513.562C501.027 508.369 501.69 504.073 503.015 500.671C504.089 497.914 505.843 495.622 508.278 493.796C510.749 491.97 513.578 490.233 516.765 488.586C519.987 486.939 523.514 486.115 527.346 486.115C533.218 486.115 538.07 487.762 541.901 491.057C545.733 494.315 547.648 499.579 547.648 506.848C547.648 507.743 547.595 509.104 547.487 510.93L538.679 512.541C535.957 512.72 532.019 512.81 526.862 512.81H515.207C515.744 518.968 517.588 523.605 520.739 526.721C523.89 529.836 527.901 531.394 532.771 531.394C534.812 531.394 536.835 531.107 538.84 530.534C540.845 529.925 542.832 529.048 544.802 527.902ZM514.831 507.116C518.054 507.403 521.276 507.546 524.499 507.546C527.328 507.546 530.3 507.403 533.415 507.116L533.469 504.592C533.469 500.188 532.663 496.983 531.052 494.978C529.44 492.937 527.256 491.916 524.499 491.916C522.565 491.916 520.9 492.399 519.504 493.366C518.107 494.297 517.069 495.622 516.389 497.341C515.708 499.06 515.189 502.318 514.831 507.116ZM599.802 527.902L601.359 529.46L598.942 534.616C596.364 536.228 593.589 537.427 590.617 538.215C587.681 539.038 584.548 539.45 581.218 539.45C573.412 539.45 567.253 537.194 562.741 532.683C558.265 528.135 556.027 521.761 556.027 513.562C556.027 508.369 556.69 504.073 558.015 500.671C559.089 497.914 560.843 495.622 563.278 493.796C565.749 491.97 568.578 490.233 571.765 488.586C574.987 486.939 578.514 486.115 582.346 486.115C588.218 486.115 593.07 487.762 596.901 491.057C600.733 494.315 602.648 499.579 602.648 506.848C602.648 507.743 602.595 509.104 602.487 510.93L593.679 512.541C590.957 512.72 587.019 512.81 581.862 512.81H570.207C570.744 518.968 572.588 523.605 575.739 526.721C578.89 529.836 582.901 531.394 587.771 531.394C589.812 531.394 591.835 531.107 593.84 530.534C595.845 529.925 597.832 529.048 599.802 527.902ZM569.831 507.116C573.054 507.403 576.276 507.546 579.499 507.546C582.328 507.546 585.3 507.403 588.415 507.116L588.469 504.592C588.469 500.188 587.663 496.983 586.052 494.978C584.44 492.937 582.256 491.916 579.499 491.916C577.565 491.916 575.9 492.399 574.504 493.366C573.107 494.297 572.069 495.622 571.389 497.341C570.708 499.06 570.189 502.318 569.831 507.116ZM650.505 488.425V479.133C650.505 473.368 650.38 470.02 650.129 469.089C649.95 468.409 649.592 467.943 649.055 467.692C648.553 467.406 646.136 467.209 641.804 467.102V463.234C650.362 462.303 657.541 460.585 663.342 458.078L664.738 459.367C664.38 465.132 664.165 470.593 664.094 475.749L663.718 517.912C663.718 524.966 663.843 529.263 664.094 530.803C664.237 531.77 664.577 532.45 665.114 532.844C665.687 533.202 667.889 533.542 671.721 533.864V538.322C667.352 538.107 663.091 538 658.938 538C655.93 538 653.119 538.107 650.505 538.322L649.592 537.678C650.021 534.061 650.326 531.143 650.505 528.923C648.07 530.749 644.185 533.882 638.85 538.322C636.809 539.074 634.893 539.45 633.103 539.45C627.159 539.45 622.199 537.248 618.225 532.844C614.286 528.404 612.316 522.513 612.316 515.173C612.316 511.592 612.71 508.352 613.498 505.451C614.322 502.515 615.271 500.313 616.345 498.845C617.455 497.377 619.657 495.497 622.951 493.205C627.427 490.09 630.686 488.138 632.727 487.351C634.803 486.527 637.059 486.115 639.494 486.115C641.249 486.115 643.039 486.312 644.865 486.706C646.691 487.064 648.571 487.637 650.505 488.425ZM650.505 499.919C648.822 497.52 646.906 495.729 644.758 494.548C642.609 493.366 640.228 492.775 637.614 492.775C633.926 492.775 631.097 494.1 629.128 496.75C627.159 499.364 626.174 503.768 626.174 509.963C626.174 516.337 627.373 521.099 629.772 524.25C632.207 527.401 635.305 528.977 639.064 528.977C641.607 528.977 643.952 528.243 646.101 526.774C648.285 525.306 649.556 523.964 649.914 522.746C650.308 521.529 650.505 516.91 650.505 508.889V499.919ZM683.752 520.866C683.931 525.485 684.164 528.063 684.45 528.601C685.238 530.069 686.706 531.358 688.854 532.468C691.039 533.578 693.563 534.133 696.428 534.133C699.937 534.133 702.551 533.417 704.27 531.984C706.024 530.552 706.901 528.654 706.901 526.291C706.901 524.25 706.275 522.639 705.021 521.457C703.768 520.275 701.083 519.237 696.965 518.342C690.734 516.981 686.67 515.799 684.772 514.797C682.91 513.758 681.424 512.237 680.314 510.231C679.204 508.226 678.649 505.827 678.649 503.034C678.649 499.74 679.473 496.822 681.12 494.279C682.767 491.737 685.131 489.75 688.21 488.317C691.325 486.849 695.425 486.115 700.51 486.115C705.809 486.115 710.733 486.975 715.28 488.693C714.779 491.594 714.439 496.105 714.26 502.229H710.017C709.802 498.361 709.497 496.088 709.104 495.407C708.566 494.369 707.546 493.492 706.042 492.775C703.965 491.809 701.745 491.325 699.382 491.325C696.374 491.325 694.029 492.006 692.346 493.366C690.699 494.691 689.875 496.374 689.875 498.415C689.875 500.313 690.627 501.817 692.131 502.927C693.635 504.073 697.215 505.165 702.873 506.203C706.776 506.919 709.479 507.582 710.983 508.19C713.49 509.265 715.388 510.84 716.677 512.917C718.002 514.958 718.664 517.554 718.664 520.705C718.664 526.757 716.319 531.394 711.628 534.616C706.937 537.839 701.351 539.45 694.87 539.45C692.722 539.45 690.34 539.2 687.727 538.698C685.113 538.197 682.266 537.463 679.187 536.496L678.381 535.583C678.811 532.468 679.079 527.562 679.187 520.866H683.752Z" fill="white"/>
<g id="Group 1">
<path id="text inner circle" d="M265.018 529.487C263.03 533.163 260.032 535 256.027 535C252.017 535 249.01 533.163 247.006 529.487C245.001 525.812 243.999 520.317 244 513.001C244 505.654 245.002 500.15 247.006 496.489C249.01 492.83 252.018 490.999 256.03 491C260.034 491 263.031 492.83 265.021 496.488C267.011 500.146 268.004 505.65 268 512.999C268 520.317 267.006 525.813 265.018 529.487V529.487Z" fill="#E2001A"/>
<g id="inner dot_2">
<path id="Vector 1_2" d="M258.514 495.626L255.925 498.088L253.415 495.7L250.747 498.088L253.336 500.549L250.747 503.011L253.336 505.473L255.925 503.011L258.436 505.548L261.103 503.086L258.436 500.624L261.103 498.162L258.514 495.626Z" fill="black" stroke="black"/>
<path id="Vector 2_2" d="M258.514 508.01L255.925 510.472L253.415 508.085L250.747 510.472L253.336 512.934L250.747 515.396L253.336 517.858L255.925 515.396L258.436 517.933L261.103 515.471L258.436 513.009L261.103 510.547L258.514 508.01Z" fill="black" stroke="black"/>
<path id="Vector 3_2" d="M258.514 520.395L255.925 522.857L253.415 520.469L250.747 522.857L253.336 525.319L250.747 527.781L253.336 530.243L255.925 527.781L258.436 530.317L261.103 527.855L258.436 525.393L261.103 522.931L258.514 520.395Z" fill="black" stroke="black"/>
</g>
</g>
</g>
</g>
</svg>
