<svg width="757" height="588" viewBox="0 0 757 588" fill="none" xmlns="http://www.w3.org/2000/svg">
<g id="animated svg">
<rect id="Rectangle 1" width="757" height="588" fill="#C4C4C4"/>
<g id="top logo">
<path id="main circle" d="M544.545 229C544.545 277.971 530.826 325.161 499.545 357.5C466.545 392.5 422.545 408.5 365.545 409C316.765 409 267.545 395.5 235.045 362C201.045 329.5 185.045 279.5 186.045 229C185.045 178.5 200.545 129 233.045 97C265.06 63.1994 314.663 46.7344 366.045 48C424.045 46 480.045 69 511.545 114C534.587 144.487 544.545 187.622 544.545 229Z" fill="white"/>
<g id="inner dot group">
<path id="inner circle" d="M422.525 338.94C409.85 363.574 390.744 375.889 365.225 375.889C339.668 375.889 320.505 363.574 307.731 338.94C294.953 314.31 288.568 277.484 288.573 228.451C288.573 179.211 294.958 142.328 307.731 117.793C320.505 93.2671 339.672 80.9995 365.239 81.0042C390.758 81.0042 409.859 93.2671 422.539 117.783C435.223 142.3 441.551 179.187 441.527 228.442C441.527 277.484 435.195 314.32 422.525 338.94V338.94Z" fill="#E2001A"/>
<g id="inner dot">
<path id="Vector 1" d="M383.045 113L366.545 129.5L350.545 113.5L333.545 129.5L350.045 146L333.545 162.5L350.045 179L366.545 162.5L382.545 179.5L399.545 163L382.545 146.5L399.545 130L383.045 113Z" fill="black" stroke="black"/>
<path id="Vector 2" d="M383.045 196L366.545 212.5L350.545 196.5L333.545 212.5L350.045 229L333.545 245.5L350.045 262L366.545 245.5L382.545 262.5L399.545 246L382.545 229.5L399.545 213L383.045 196Z" fill="black" stroke="black"/>
<path id="Vector 3" d="M383.045 279L366.545 295.5L350.545 279.5L333.545 295.5L350.045 312L333.545 328.5L350.045 345L366.545 328.5L382.545 345.5L399.545 329L382.545 312.5L399.545 296L383.045 279Z" fill="black" stroke="black"/>
</g>
</g>
</g>
<g id="texts">
<text id="Serious Seeds" fill="white" xml:space="preserve" style="white-space: pre" font-family="Book Antiqua" font-size="110" font-weight="bold" letter-spacing="0em"><tspan x="23" y="537.761">Serious Seeds</tspan></text>
<g id="Group 1">
<path id="text inner circle" d="M265.018 529.487C263.03 533.163 260.032 535 256.027 535C252.017 535 249.01 533.163 247.006 529.487C245.001 525.812 243.999 520.317 244 513.001C244 505.654 245.002 500.15 247.006 496.489C249.01 492.83 252.018 490.999 256.03 491C260.034 491 263.031 492.83 265.021 496.488C267.011 500.146 268.004 505.65 268 512.999C268 520.317 267.006 525.813 265.018 529.487V529.487Z" fill="#E2001A"/>
<g id="inner dot_2">
<path id="Vector 1_2" d="M258.514 495.626L255.925 498.088L253.415 495.7L250.747 498.088L253.336 500.549L250.747 503.011L253.336 505.473L255.925 503.011L258.436 505.548L261.103 503.086L258.436 500.624L261.103 498.162L258.514 495.626Z" fill="black" stroke="black"/>
<path id="Vector 2_2" d="M258.514 508.01L255.925 510.472L253.415 508.085L250.747 510.472L253.336 512.934L250.747 515.396L253.336 517.858L255.925 515.396L258.436 517.933L261.103 515.471L258.436 513.009L261.103 510.547L258.514 508.01Z" fill="black" stroke="black"/>
<path id="Vector 3_2" d="M258.514 520.395L255.925 522.857L253.415 520.469L250.747 522.857L253.336 525.319L250.747 527.781L253.336 530.243L255.925 527.781L258.436 530.317L261.103 527.855L258.436 525.393L261.103 522.931L258.514 520.395Z" fill="black" stroke="black"/>
</g>
</g>
</g>
</g>
</svg>
