<svg xmlns="http://www.w3.org/2000/svg" viewBox="0 0 318.62 223.16">
  <path d="M105.951 217.812a4.619 4.619 0 01-8.4 0q-1.4-2.7-1.4-8.078 0-5.4 1.4-8.089a4.627 4.627 0 018.4 0q1.385 2.689 1.39 8.089 0 5.382-1.39 8.078z" fill="#e2001a" class="svg-elem-1"/>
  <path d="M318.62 214.92a6.85 6.85 0 01-2.98 5.71 12.189 12.189 0 01-7.56 2.25 25.224 25.224 0 01-9.8-1.72v-6.49h3.1l.02.41c.09 1.9.37 3.11.85 3.65a7.051 7.051 0 005.46 2.02 4.19 4.19 0 002.96-1.13 3.6 3.6 0 001.21-2.77q0-2.55-4.29-4.24l-2.08-.83q-7.23-2.865-7.23-7.73a6.437 6.437 0 012.78-5.47 12.567 12.567 0 017.53-2.03 28.079 28.079 0 017.84 1.19v6.03h-3.13l-.02-.43-.04-1.11c0-2.36-1.38-3.55-4.14-3.55a4.341 4.341 0 00-3.07 1.17 3.77 3.77 0 00-1.26 2.87 2.8 2.8 0 00.93 2.23 13.655 13.655 0 003.82 1.92l2.06.8q7.05 2.715 7.04 7.25z" fill="#fff" class="svg-elem-2"/>
  <path d="M295.19 220.18v2.13h-10.47v-4.75l-2.43-.11a10.756 10.756 0 002.43-2.26v-12.97a11.386 11.386 0 00-2.62-1.83l2.62-.72v-6.93c0-2.04-.15-3.27-.44-3.7s-1.23-.68-2.79-.77l-.43-.05v-2.13h10.45v29.57c0 2.04.16 3.28.46 3.7s1.23.68 2.78.79z" fill="#fff" class="svg-elem-3"/>
  <path d="M284.72 199.67l-2.62.72a5.578 5.578 0 00-2.46-.61 4.671 4.671 0 00-4.3 2.45q-1.44 2.46-1.44 7.37a13.8 13.8 0 001.27 6.68 4.128 4.128 0 003.81 2.22 5.738 5.738 0 002.95-.83c.12-.07.24-.14.36-.22l2.43.11a10.046 10.046 0 01-3.53 3.99 9.314 9.314 0 01-4.98 1.33 8.3 8.3 0 01-6.97-3.39q-2.565-3.405-2.57-9.16 0-6.27 2.92-10.03a9.373 9.373 0 017.81-3.75 9.931 9.931 0 013.94.78 10.834 10.834 0 013.38 2.34z" fill="#fff" class="svg-elem-4"/>
  <path d="M262.87 217.84v3.48a26.678 26.678 0 01-8.77 1.56q-6.435 0-10.19-3.62t-3.75-9.84a12.955 12.955 0 013.38-9.3 11.6 11.6 0 018.82-3.57q10.5 0 10.51 12.89v.5h-15.74q0 4.77 2.23 7.16t6.67 2.39a17.662 17.662 0 006.84-1.65zm-6.68-10.03v-.8q0-4.56-.92-6.45a3.246 3.246 0 00-3.17-1.88 3.854 3.854 0 00-3.6 2.28 15.1 15.1 0 00-1.21 6.85z" fill="#fff" class="svg-elem-5"/>
  <path d="M236.47 217.84v3.48a26.678 26.678 0 01-8.77 1.56q-6.435 0-10.19-3.62t-3.76-9.84a12.918 12.918 0 013.39-9.3 11.611 11.611 0 018.82-3.57q10.5 0 10.51 12.89v.5h-15.74q0 4.77 2.22 7.16c1.49 1.59 3.71 2.39 6.68 2.39a17.662 17.662 0 006.84-1.65zm-6.68-10.03v-.8q0-4.56-.92-6.45a3.246 3.246 0 00-3.17-1.88 3.854 3.854 0 00-3.6 2.28 15.1 15.1 0 00-1.21 6.85z" fill="#fff" class="svg-elem-6"/>
  <path d="M210.87 212.95a9.02 9.02 0 01-3.48 7.43q-3.48 2.775-9.34 2.78a42.114 42.114 0 01-9.55-1.27v-7.08h3.4l.02.55c.1 2.01.5 3.29 1.17 3.84a7.569 7.569 0 004.96 1.71 5.963 5.963 0 004.39-1.68 5.893 5.893 0 001.68-4.38 5.55 5.55 0 00-.98-3.44 12.778 12.778 0 00-3.81-2.84l-2.27-1.24q-8.505-4.71-8.51-10.23a8.693 8.693 0 013.07-6.96 12.169 12.169 0 018.17-2.63 33.292 33.292 0 019.12 1.49v6.84h-3.39l-.02-.41c-.12-2.15-.44-3.48-.94-4a5.866 5.866 0 00-4.28-1.67 4.944 4.944 0 00-3.7 1.57 5.367 5.367 0 00-1.52 3.86 4.483 4.483 0 001 2.95 14.4 14.4 0 003.8 2.81l2.29 1.33q5.025 2.9 6.88 5.14a8.557 8.557 0 011.84 5.53z" fill="#fff" class="svg-elem-7"/>
  <path d="M169.83 214.92a6.85 6.85 0 01-2.98 5.71 12.22 12.22 0 01-7.57 2.25 25.206 25.206 0 01-9.79-1.72v-6.49h3.09l.03.41c.09 1.9.37 3.11.84 3.65a7.088 7.088 0 005.47 2.02 4.19 4.19 0 002.96-1.13 3.636 3.636 0 001.21-2.77q0-2.55-4.29-4.24l-2.09-.83q-7.215-2.865-7.22-7.73a6.437 6.437 0 012.78-5.47 12.547 12.547 0 017.53-2.03 28.065 28.065 0 017.83 1.19v6.03h-3.12l-.02-.43-.05-1.11c0-2.36-1.38-3.55-4.14-3.55a4.317 4.317 0 00-3.06 1.17 3.77 3.77 0 00-1.26 2.87 2.8 2.8 0 00.93 2.23 13.706 13.706 0 003.81 1.92l2.07.8q7.035 2.715 7.04 7.25z" fill="#fff" class="svg-elem-8"/>
  <path d="M146.21 220.18v2.13h-10.46v-4.75l-2.08-.23a11.578 11.578 0 002.08-2.27v-11.29c0-2.05-.15-3.28-.46-3.7s-1.24-.68-2.8-.79l-.41-.03v-2.13h10.46v18.54c0 2.04.16 3.28.47 3.7s1.23.68 2.77.79z" fill="#fff" class="svg-elem-9"/>
  <path d="M133.67 217.33l2.08.23a11.1 11.1 0 01-3.69 3.99 9.3 9.3 0 01-4.94 1.33 6.791 6.791 0 01-5.29-2.11 8.3 8.3 0 01-1.93-5.83v-11.17c0-2.05-.15-3.28-.46-3.7s-1.23-.68-2.78-.79l-.43-.03v-2.13h10.46v17.05a6.8 6.8 0 00.69 3.63 2.764 2.764 0 002.45 1 5.768 5.768 0 003.11-.94 7.1 7.1 0 00.73-.53z" fill="#fff" class="svg-elem-10"/>
  <path d="M111.35 200.07c2.33 2.36 3.5 5.57 3.5 9.66s-1.17 7.32-3.5 9.67-5.53 3.52-9.59 3.52h-.03l.03-2.41a4.482 4.482 0 004.19-2.7c.92-1.8 1.39-4.49 1.39-8.08s-.47-6.29-1.39-8.08a4.488 4.488 0 00-4.19-2.69l.03-2.42q6.075.015 9.56 3.53z" fill="#fff" class="svg-elem-11"/>
  <path d="M101.79 196.54l-.03 2.42a4.515 4.515 0 00-4.21 2.69q-1.395 2.685-1.4 8.08t1.4 8.08a4.509 4.509 0 004.21 2.7l-.03 2.41q-6.105-.015-9.59-3.52-3.51-3.525-3.5-9.67c0-4.09 1.16-7.3 3.5-9.66s5.54-3.53 9.62-3.53z" fill="#fff" class="svg-elem-12"/>
  <path d="M86.78 220.18v2.13H72.65v-2.13l.43-.03c1.55-.11 2.48-.37 2.78-.79s.46-1.66.46-3.7v-11.89c0-2.05-.15-3.28-.46-3.7s-1.23-.68-2.78-.79l-.43-.03v-2.13h10.46v18.54c0 2.04.15 3.28.47 3.7s1.23.68 2.76.79z" fill="#fff" class="svg-elem-13"/>
  <path fill="#fff" class="svg-elem-14" d="M76.32 186.09h6.79v6.79h-6.79z"/>
  <path d="M70.74 196.73v8.03h-3.11l-.03-.41a16.15 16.15 0 00-.33-2.88q-.15-.33-1.14-.33c-1.95 0-3.54 1.06-4.75 3.18v11.34c0 2.08.17 3.31.51 3.71s1.45.66 3.33.78l.43.03v2.13H50.93v-2.13l.43-.03c1.54-.11 2.47-.37 2.78-.79s.46-1.66.46-3.7v-11.89c0-2.05-.16-3.28-.46-3.7s-1.24-.68-2.78-.79l-.43-.03v-2.13h10.45v4.75q3.1-5.325 8.03-5.32a6.2 6.2 0 011.33.18z" fill="#fff" class="svg-elem-15"/>
  <path d="M47.97 217.84v3.48a26.678 26.678 0 01-8.77 1.56q-6.435 0-10.19-3.62t-3.75-9.84a12.955 12.955 0 013.38-9.3 11.611 11.611 0 018.82-3.57q10.515 0 10.51 12.89v.5H32.23q0 4.77 2.23 7.16c1.48 1.59 3.71 2.39 6.67 2.39a17.662 17.662 0 006.84-1.65zm-6.68-10.03v-.8c0-3.04-.3-5.19-.92-6.45a3.246 3.246 0 00-3.17-1.88 3.854 3.854 0 00-3.6 2.28 15.1 15.1 0 00-1.21 6.85z" fill="#fff" class="svg-elem-16"/>
  <path d="M22.37 212.95a9.02 9.02 0 01-3.48 7.43q-3.465 2.775-9.34 2.78A42.114 42.114 0 010 221.89v-7.08h3.4l.02.55q.165 3.015 1.17 3.84a7.588 7.588 0 004.96 1.71 5.779 5.779 0 006.08-6.06 5.552 5.552 0 00-.99-3.44 12.778 12.778 0 00-3.81-2.84l-2.27-1.24Q.055 202.62.05 197.1a8.7 8.7 0 013.08-6.96 12.123 12.123 0 018.16-2.63 33.357 33.357 0 019.13 1.49v6.84h-3.39l-.03-.41c-.12-2.15-.43-3.48-.94-4a5.866 5.866 0 00-4.28-1.67 4.944 4.944 0 00-3.7 1.57 5.358 5.358 0 00-1.51 3.86 4.476 4.476 0 00.99 2.95 14.571 14.571 0 003.8 2.81l2.29 1.33a26.442 26.442 0 016.89 5.14 8.55 8.55 0 011.83 5.53z" fill="#fff" class="svg-elem-17"/>
  <path d="M220.92 22.63q22.47 22.62 22.47 61.97t-22.47 61.97q-22.47 22.635-61.52 22.62-39.21 0-61.69-22.62T75.23 84.6q0-39.36 22.48-61.97Q120.18 0 159.4 0q39.045 0 61.52 22.63z" fill="#fff" class="svg-elem-18"/>
  <path d="M186.284 136.4q-8.925 17.322-26.889 17.322-17.988 0-26.98-17.322t-8.99-51.8q0-34.627 8.99-51.878T159.4 15.474q17.963 0 26.889 17.242t8.911 51.878q0 34.491-8.916 51.806z" fill="#e2001a" class="svg-elem-19"/>
  <path class="svg-elem-20" d="M174.71 38.4l-7.7 7.7 7.7 7.7-7.7 7.7-7.7-7.7-7.7 7.7-7.69-7.7 7.69-7.7-7.69-7.7 7.69-7.7 7.7 7.7 7.7-7.7 7.7 7.7z"/>
  <path class="svg-elem-21" d="M159.31 92.3l-7.7 7.69-7.69-7.69 7.69-7.7-7.69-7.7 7.69-7.7 7.7 7.7 7.7-7.7 7.7 7.7-7.7 7.7 7.7 7.69-7.7 7.7-7.7-7.69z"/>
  <path class="svg-elem-22" d="M174.71 115.39l-7.7 7.7 7.7 7.7-7.7 7.7-7.7-7.7-7.7 7.7-7.69-7.7 7.69-7.7-7.69-7.7 7.69-7.7 7.7 7.7 7.7-7.7 7.7 7.7z"/>
  <path class="svg-elem-23" d="M100.54 203.66l-1.22-1.21 1.22-1.21 1.21 1.21 1.21-1.21 1.21 1.21-1.21 1.21 1.21 1.21-1.21 1.21-1.21-1.21-1.21 1.21-1.22-1.21 1.22-1.21z"/>
  <path class="svg-elem-24" d="M102.96 209.71l1.21 1.21-1.21 1.22-1.21-1.22-1.21 1.22-1.22-1.22 1.22-1.21-1.22-1.21 1.22-1.21 1.21 1.21 1.21-1.21 1.21 1.21-1.21 1.21z"/>
  <path class="svg-elem-25" d="M102.96 215.77l1.21 1.21-1.21 1.21-1.21-1.21-1.21 1.21-1.22-1.21 1.22-1.21-1.22-1.21 1.22-1.21 1.21 1.21 1.21-1.21 1.21 1.21-1.21 1.21z"/>
</svg>
